<svg width="770" height="977" xmlns="http://www.w3.org/2000/svg" xmlns:xlink="http://www.w3.org/1999/xlink" xml:space="preserve" overflow="hidden"><g transform="translate(-1960 -706)"><path d="M1960 725.928C1960 714.922 1968.92 706 1979.93 706L2710.07 706C2721.08 706 2730 714.922 2730 725.928L2730 1663.07C2730 1674.08 2721.08 1683 2710.07 1683L1979.93 1683C1968.92 1683 1960 1674.08 1960 1663.07Z" fill="#000000" fill-rule="evenodd" fill-opacity="0.521569"/><path d="M2246.42 770.967C2245.13 770.967 2244 771.209 2243.04 771.692 2242.07 772.175 2241.26 772.807 2240.59 773.589 2239.92 774.371 2239.4 775.268 2239.04 776.28 2238.67 777.292 2238.41 778.327 2238.28 779.385L2253.8 779.385C2253.8 778.235 2253.64 777.143 2253.32 776.108 2253 775.073 2252.53 774.176 2251.9 773.417 2251.28 772.658 2250.52 772.06 2249.63 771.623 2248.73 771.186 2247.66 770.967 2246.42 770.967ZM2286.45 763.998C2289.86 763.998 2293.08 764.619 2296.11 765.861L2294.32 772.692C2293.35 772.278 2292.26 771.933 2291.04 771.657 2289.82 771.381 2288.52 771.243 2287.14 771.243 2283.88 771.243 2281.39 772.267 2279.69 774.314 2277.99 776.361 2277.14 779.247 2277.14 782.973 2277.14 786.561 2277.94 789.402 2279.55 791.495 2281.16 793.588 2283.88 794.634 2287.7 794.634 2289.12 794.634 2290.52 794.496 2291.9 794.22 2293.28 793.944 2294.48 793.599 2295.49 793.185L2296.67 800.085C2295.75 800.545 2294.35 800.959 2292.49 801.327 2290.63 801.695 2288.71 801.879 2286.73 801.879 2283.65 801.879 2280.97 801.408 2278.69 800.465 2276.41 799.522 2274.53 798.211 2273.03 796.532 2271.54 794.853 2270.42 792.852 2269.69 790.529 2268.95 788.206 2268.58 785.687 2268.58 782.973 2268.58 780.305 2269 777.81 2269.82 775.487 2270.65 773.164 2271.84 771.151 2273.38 769.449 2274.92 767.747 2276.79 766.413 2279 765.447 2281.21 764.481 2283.69 763.998 2286.45 763.998ZM2246.35 763.998C2251.32 763.998 2255.19 765.539 2257.98 768.621 2260.76 771.703 2262.15 776.303 2262.15 782.421 2262.15 782.881 2262.14 783.399 2262.12 783.974 2262.09 784.549 2262.06 785.066 2262.01 785.526L2238.21 785.526C2238.44 788.424 2239.46 790.667 2241.28 792.254 2243.1 793.841 2245.73 794.634 2249.18 794.634 2251.2 794.634 2253.05 794.45 2254.73 794.082 2256.41 793.714 2257.73 793.323 2258.7 792.909L2259.8 799.74C2259.34 799.97 2258.71 800.212 2257.91 800.465 2257.1 800.718 2256.18 800.948 2255.15 801.155 2254.11 801.362 2253 801.534 2251.8 801.672 2250.6 801.81 2249.39 801.879 2248.14 801.879 2244.97 801.879 2242.21 801.408 2239.86 800.465 2237.52 799.522 2235.59 798.211 2234.07 796.532 2232.55 794.853 2231.42 792.875 2230.69 790.598 2229.95 788.321 2229.58 785.825 2229.58 783.111 2229.58 779.937 2230.05 777.154 2231 774.762 2231.94 772.37 2233.19 770.381 2234.76 768.794 2236.32 767.207 2238.12 766.011 2240.14 765.206 2242.16 764.401 2244.23 763.998 2246.35 763.998ZM2019.7 762.411C2018.64 764.849 2017.43 767.816 2016.07 771.312 2014.72 774.808 2013.3 778.603 2011.83 782.697L2027.56 782.697C2026.09 778.603 2024.66 774.785 2023.28 771.243 2021.9 767.701 2020.71 764.757 2019.7 762.411ZM2087 753.165 2095.69 753.165 2095.69 772.899C2097.21 771.381 2098.8 769.76 2100.45 768.035 2102.11 766.31 2103.75 764.562 2105.39 762.791 2107.02 761.02 2108.57 759.306 2110.04 757.65 2111.52 755.994 2112.85 754.499 2114.05 753.165L2124.46 753.165C2122.95 754.913 2121.34 756.73 2119.63 758.616 2117.93 760.502 2116.18 762.4 2114.39 764.309 2112.6 766.218 2110.79 768.115 2108.97 770.001 2107.16 771.887 2105.37 773.681 2103.63 775.383 2105.56 776.855 2107.53 778.569 2109.53 780.524 2111.53 782.479 2113.49 784.572 2115.43 786.803 2117.36 789.034 2119.21 791.357 2120.98 793.772 2122.75 796.187 2124.37 798.59 2125.84 800.982L2115.56 800.982C2114.37 799.142 2112.99 797.21 2111.42 795.186 2109.86 793.162 2108.22 791.207 2106.49 789.321 2104.77 787.435 2102.98 785.641 2101.14 783.939 2099.3 782.237 2097.49 780.765 2095.69 779.523L2095.69 800.982 2087 800.982ZM2049 753.165 2079.22 753.165 2079.22 760.548 2057.69 760.548 2057.69 772.761 2076.8 772.761 2076.8 780.144 2057.69 780.144 2057.69 800.982 2049 800.982ZM2015.71 753.165 2024.01 753.165C2025.62 756.569 2027.18 760.019 2028.7 763.515 2030.22 767.011 2031.75 770.691 2033.29 774.555 2034.83 778.419 2036.42 782.513 2038.05 786.837 2039.69 791.161 2041.4 795.876 2043.19 800.982L2033.81 800.982C2033.16 799.096 2032.49 797.233 2031.8 795.393 2031.11 793.553 2030.44 791.667 2029.8 789.735L2009.6 789.735C2008.95 791.667 2008.29 793.565 2007.63 795.428 2006.96 797.291 2006.3 799.142 2005.65 800.982L1996.61 800.982C1998.41 795.876 2000.11 791.161 2001.72 786.837 2003.32 782.513 2004.9 778.419 2006.44 774.555 2007.98 770.691 2009.51 767.011 2011.02 763.515 2012.54 760.019 2014.1 756.569 2015.71 753.165ZM2169.66 752.061C2171.64 752.061 2173.44 752.211 2175.05 752.51 2176.66 752.809 2178.06 753.142 2179.25 753.51 2180.45 753.878 2181.44 754.269 2182.22 754.683 2183 755.097 2183.56 755.396 2183.88 755.58L2181.32 762.687C2180.22 761.997 2178.65 761.342 2176.6 760.721 2174.55 760.1 2172.33 759.789 2169.94 759.789 2167.87 759.789 2165.94 760.146 2164.14 760.859 2162.35 761.572 2160.8 762.641 2159.49 764.067 2158.18 765.493 2157.15 767.287 2156.42 769.449 2155.68 771.611 2155.31 774.118 2155.31 776.97 2155.31 779.5 2155.6 781.823 2156.17 783.939 2156.75 786.055 2157.63 787.884 2158.83 789.425 2160.03 790.966 2161.54 792.162 2163.38 793.013 2165.22 793.864 2167.43 794.289 2170.01 794.289 2173.09 794.289 2175.6 793.979 2177.53 793.358 2179.46 792.737 2180.96 792.15 2182.01 791.598L2184.36 798.705C2183.81 799.073 2183.06 799.441 2182.12 799.809 2181.18 800.177 2180.06 800.534 2178.77 800.879 2177.48 801.224 2176.03 801.5 2174.42 801.707 2172.81 801.914 2171.09 802.017 2169.25 802.017 2165.66 802.017 2162.44 801.465 2159.59 800.361 2156.74 799.257 2154.32 797.636 2152.34 795.497 2150.37 793.358 2148.85 790.747 2147.79 787.665 2146.73 784.583 2146.2 781.041 2146.2 777.039 2146.2 773.037 2146.81 769.495 2148.03 766.413 2149.25 763.331 2150.92 760.721 2153.03 758.582 2155.15 756.443 2157.63 754.821 2160.49 753.717 2163.34 752.613 2166.4 752.061 2169.66 752.061ZM2311.93 747.438 2311.93 778.971C2312.99 777.867 2314.12 776.683 2315.31 775.418 2316.51 774.153 2317.68 772.888 2318.83 771.623 2319.98 770.358 2321.08 769.139 2322.11 767.966 2323.15 766.793 2324.03 765.769 2324.77 764.895L2334.63 764.895C2332.34 767.471 2329.92 770.139 2327.37 772.899 2324.82 775.659 2322.26 778.35 2319.69 780.972 2321.07 782.122 2322.52 783.514 2324.03 785.147 2325.55 786.78 2327.02 788.516 2328.44 790.356 2329.86 792.196 2331.19 794.036 2332.43 795.876 2333.67 797.716 2334.7 799.418 2335.53 800.982L2325.87 800.982C2325.04 799.556 2324.09 798.061 2323.01 796.497 2321.93 794.933 2320.76 793.415 2319.52 791.943 2318.28 790.471 2317.02 789.08 2315.73 787.769 2314.44 786.458 2313.17 785.342 2311.93 784.422L2311.93 800.982 2303.58 800.982 2303.58 748.818ZM2199.93 747.438 2199.93 765.309C2200.85 764.987 2201.92 764.711 2203.14 764.481 2204.36 764.251 2205.57 764.136 2206.76 764.136 2209.66 764.136 2212.07 764.539 2213.97 765.344 2215.88 766.149 2217.41 767.276 2218.56 768.725 2219.71 770.174 2220.53 771.91 2221.01 773.934 2221.5 775.958 2221.74 778.212 2221.74 780.696L2221.74 800.982 2213.39 800.982 2213.39 782.007C2213.39 780.075 2213.26 778.431 2213.01 777.074 2212.76 775.717 2212.34 774.613 2211.77 773.762 2211.19 772.911 2210.42 772.29 2209.45 771.899 2208.49 771.508 2207.29 771.312 2205.87 771.312 2204.76 771.312 2203.64 771.427 2202.49 771.657 2201.34 771.887 2200.48 772.094 2199.93 772.278L2199.93 800.982 2191.58 800.982 2191.58 748.818Z" stroke="#000000" stroke-linejoin="round" stroke-miterlimit="10" fill="#FFFFFF" fill-rule="evenodd"/><text fill="#000000" fill-opacity="0" font-family="Arial,Arial_MSFontService,sans-serif" font-size="54.579" x="1996.61" y="795.195">AFK Check</text><path d="M2057.25 860.742C2056.64 860.742 2056.02 860.788 2055.39 860.88 2054.76 860.972 2054.2 861.141 2053.69 861.386 2053.18 861.631 2052.78 861.977 2052.47 862.421 2052.16 862.866 2052.01 863.425 2052.01 864.1 2052.01 865.419 2052.42 866.331 2053.25 866.837 2054.08 867.343 2055.2 867.596 2056.61 867.596 2058.33 867.596 2059.63 867.504 2060.52 867.32L2060.52 861.156C2060.21 861.064 2059.77 860.972 2059.19 860.88 2058.6 860.788 2057.96 860.742 2057.25 860.742ZM2571.36 851.726C2569.33 851.726 2567.85 852.416 2566.92 853.796 2565.98 855.176 2565.52 857.047 2565.52 859.408 2565.52 861.862 2566.1 863.786 2567.26 865.181 2568.43 866.576 2570.04 867.274 2572.09 867.274 2572.98 867.274 2573.74 867.236 2574.37 867.159 2575 867.083 2575.51 866.998 2575.91 866.906L2575.91 853.106C2575.42 852.769 2574.77 852.455 2573.96 852.163 2573.14 851.872 2572.28 851.726 2571.36 851.726ZM2082.77 851.588C2080.75 851.588 2079.2 852.255 2078.13 853.589 2077.05 854.923 2076.52 856.679 2076.52 858.856 2076.52 861.218 2077.03 862.943 2078.06 864.031 2079.08 865.12 2080.41 865.664 2082.04 865.664 2082.93 865.664 2083.76 865.542 2084.54 865.296 2085.32 865.051 2085.96 864.76 2086.45 864.422L2086.45 851.956C2086.05 851.864 2085.56 851.78 2084.98 851.703 2084.4 851.627 2083.66 851.588 2082.77 851.588ZM2518.04 851.496C2517.18 851.496 2516.43 851.657 2515.78 851.979 2515.14 852.301 2514.59 852.723 2514.15 853.244 2513.7 853.766 2513.36 854.364 2513.11 855.038 2512.87 855.713 2512.7 856.403 2512.61 857.108L2522.96 857.108C2522.96 856.341 2522.85 855.613 2522.64 854.923 2522.42 854.233 2522.11 853.635 2521.69 853.129 2521.28 852.623 2520.77 852.224 2520.17 851.933 2519.58 851.642 2518.86 851.496 2518.04 851.496ZM2482.04 851.496C2481.18 851.496 2480.43 851.657 2479.78 851.979 2479.14 852.301 2478.59 852.723 2478.15 853.244 2477.7 853.766 2477.36 854.364 2477.11 855.038 2476.87 855.713 2476.7 856.403 2476.61 857.108L2486.96 857.108C2486.96 856.341 2486.85 855.613 2486.64 854.923 2486.42 854.233 2486.11 853.635 2485.69 853.129 2485.28 852.623 2484.77 852.224 2484.18 851.933 2483.58 851.642 2482.86 851.496 2482.04 851.496ZM2290.04 851.496C2289.18 851.496 2288.43 851.657 2287.78 851.979 2287.14 852.301 2286.59 852.723 2286.15 853.244 2285.7 853.766 2285.36 854.364 2285.11 855.038 2284.87 855.713 2284.7 856.403 2284.61 857.108L2294.96 857.108C2294.96 856.341 2294.85 855.613 2294.64 854.923 2294.42 854.233 2294.11 853.635 2293.69 853.129 2293.28 852.623 2292.77 852.224 2292.18 851.933 2291.58 851.642 2290.86 851.496 2290.04 851.496ZM2165.04 851.496C2164.18 851.496 2163.43 851.657 2162.78 851.979 2162.14 852.301 2161.59 852.723 2161.15 853.244 2160.7 853.766 2160.36 854.364 2160.11 855.038 2159.87 855.713 2159.7 856.403 2159.61 857.108L2169.96 857.108C2169.96 856.341 2169.85 855.613 2169.64 854.923 2169.42 854.233 2169.11 853.635 2168.69 853.129 2168.28 852.623 2167.77 852.224 2167.18 851.933 2166.58 851.642 2165.86 851.496 2165.04 851.496ZM2389.19 847.448 2394.76 847.448 2394.76 871.506 2389.19 871.506ZM2316.87 847.448 2322.44 847.448 2322.44 860.052C2322.44 862.628 2322.81 864.468 2323.56 865.572 2324.31 866.676 2325.63 867.228 2327.5 867.228 2328.17 867.228 2328.88 867.198 2329.64 867.136 2330.39 867.075 2330.95 866.998 2331.31 866.906L2331.31 847.448 2336.88 847.448 2336.88 870.77C2335.81 871.046 2334.41 871.33 2332.69 871.621 2330.98 871.912 2329.09 872.058 2327.04 872.058 2325.1 872.058 2323.49 871.782 2322.18 871.23 2320.88 870.678 2319.84 869.911 2319.05 868.93 2318.27 867.949 2317.71 866.776 2317.38 865.411 2317.04 864.047 2316.87 862.552 2316.87 860.926ZM2214.19 847.448 2219.76 847.448 2219.76 871.506 2214.19 871.506ZM2544.04 846.942C2546 846.942 2547.64 847.211 2548.96 847.747 2550.28 848.284 2551.33 849.035 2552.11 850.001 2552.89 850.967 2553.44 852.133 2553.76 853.497 2554.09 854.862 2554.25 856.357 2554.25 857.982L2554.25 871.506 2548.68 871.506 2548.68 858.856C2548.68 857.568 2548.6 856.472 2548.43 855.567 2548.26 854.662 2547.98 853.927 2547.6 853.359 2547.22 852.792 2546.7 852.378 2546.04 852.117 2545.38 851.857 2544.57 851.726 2543.62 851.726 2542.92 851.726 2542.18 851.772 2541.41 851.864 2540.65 851.956 2540.08 852.033 2539.71 852.094L2539.71 871.506 2534.15 871.506 2534.15 848.23C2535.22 847.924 2536.61 847.632 2538.33 847.356 2540.05 847.08 2541.95 846.942 2544.04 846.942ZM2353.04 846.942C2355 846.942 2356.64 847.211 2357.96 847.747 2359.28 848.284 2360.33 849.035 2361.11 850.001 2361.89 850.967 2362.44 852.133 2362.76 853.497 2363.09 854.862 2363.25 856.357 2363.25 857.982L2363.25 871.506 2357.68 871.506 2357.68 858.856C2357.68 857.568 2357.6 856.472 2357.43 855.567 2357.26 854.662 2356.98 853.927 2356.6 853.359 2356.22 852.792 2355.7 852.378 2355.04 852.117 2354.38 851.857 2353.57 851.726 2352.62 851.726 2351.92 851.726 2351.18 851.772 2350.41 851.864 2349.65 851.956 2349.08 852.033 2348.71 852.094L2348.71 871.506 2343.15 871.506 2343.15 848.23C2344.22 847.924 2345.61 847.632 2347.33 847.356 2349.05 847.08 2350.95 846.942 2353.04 846.942ZM2235.53 846.942C2235.9 846.942 2236.33 846.965 2236.82 847.011 2237.31 847.057 2237.8 847.119 2238.29 847.195 2238.78 847.272 2239.26 847.364 2239.72 847.471 2240.18 847.578 2240.54 847.678 2240.82 847.77L2239.85 852.462C2239.39 852.309 2238.76 852.148 2237.95 851.979 2237.13 851.81 2236.19 851.726 2235.12 851.726 2234.5 851.726 2233.85 851.787 2233.16 851.91 2232.47 852.033 2231.99 852.14 2231.71 852.232L2231.71 871.506 2226.15 871.506 2226.15 848.598C2227.22 848.2 2228.56 847.824 2230.17 847.471 2231.78 847.119 2233.57 846.942 2235.53 846.942ZM2082.73 846.942C2084.54 846.942 2086.25 847.08 2087.88 847.356 2089.5 847.632 2090.88 847.924 2092.02 848.23L2092.02 869.068C2092.02 872.901 2091.04 875.708 2089.1 877.486 2087.15 879.265 2084.17 880.154 2080.15 880.154 2078.68 880.154 2077.24 880.031 2075.85 879.786 2074.45 879.541 2073.19 879.219 2072.05 878.82L2073.07 874.082C2074.02 874.481 2075.1 874.803 2076.31 875.048 2077.52 875.294 2078.83 875.416 2080.24 875.416 2082.48 875.416 2084.08 874.956 2085.03 874.036 2085.98 873.116 2086.45 871.752 2086.45 869.942L2086.45 869.022C2085.9 869.298 2085.17 869.574 2084.27 869.85 2083.36 870.126 2082.33 870.264 2081.16 870.264 2079.63 870.264 2078.23 870.019 2076.95 869.528 2075.68 869.037 2074.59 868.317 2073.69 867.366 2072.78 866.416 2072.08 865.227 2071.57 863.801 2071.06 862.375 2070.81 860.727 2070.81 858.856 2070.81 857.108 2071.08 855.498 2071.62 854.026 2072.15 852.554 2072.94 851.297 2073.96 850.254 2074.99 849.211 2076.24 848.399 2077.71 847.816 2079.18 847.234 2080.86 846.942 2082.73 846.942ZM2038.53 846.942C2038.9 846.942 2039.33 846.965 2039.82 847.011 2040.31 847.057 2040.8 847.119 2041.29 847.195 2041.78 847.272 2042.26 847.364 2042.72 847.471 2043.18 847.578 2043.54 847.678 2043.82 847.77L2042.85 852.462C2042.39 852.309 2041.76 852.148 2040.95 851.979 2040.13 851.81 2039.19 851.726 2038.12 851.726 2037.5 851.726 2036.85 851.787 2036.16 851.91 2035.47 852.033 2034.99 852.14 2034.71 852.232L2034.71 871.506 2029.15 871.506 2029.15 848.598C2030.22 848.2 2031.56 847.824 2033.17 847.471 2034.78 847.119 2036.57 846.942 2038.53 846.942ZM2517.99 846.85C2521.3 846.85 2523.89 847.878 2525.74 849.932 2527.6 851.987 2528.52 855.054 2528.52 859.132 2528.52 859.439 2528.52 859.784 2528.5 860.167 2528.49 860.55 2528.46 860.896 2528.43 861.202L2512.56 861.202C2512.72 863.134 2513.4 864.629 2514.61 865.687 2515.82 866.745 2517.58 867.274 2519.88 867.274 2521.23 867.274 2522.46 867.151 2523.58 866.906 2524.7 866.661 2525.58 866.4 2526.22 866.124L2526.96 870.678C2526.65 870.831 2526.23 870.992 2525.69 871.161 2525.16 871.33 2524.54 871.483 2523.85 871.621 2523.17 871.759 2522.42 871.874 2521.62 871.966 2520.83 872.058 2520.01 872.104 2519.19 872.104 2517.07 872.104 2515.23 871.79 2513.67 871.161 2512.1 870.532 2510.81 869.659 2509.8 868.539 2508.79 867.42 2508.04 866.101 2507.55 864.583 2507.06 863.065 2506.81 861.401 2506.81 859.592 2506.81 857.476 2507.13 855.621 2507.75 854.026 2508.38 852.432 2509.22 851.105 2510.26 850.047 2511.3 848.989 2512.5 848.192 2513.85 847.655 2515.2 847.119 2516.58 846.85 2517.99 846.85ZM2481.99 846.85C2485.3 846.85 2487.89 847.878 2489.74 849.932 2491.6 851.987 2492.52 855.054 2492.52 859.132 2492.52 859.439 2492.52 859.784 2492.5 860.167 2492.49 860.55 2492.46 860.896 2492.43 861.202L2476.56 861.202C2476.72 863.134 2477.4 864.629 2478.61 865.687 2479.82 866.745 2481.58 867.274 2483.88 867.274 2485.23 867.274 2486.46 867.151 2487.58 866.906 2488.7 866.661 2489.58 866.4 2490.22 866.124L2490.96 870.678C2490.65 870.831 2490.23 870.992 2489.7 871.161 2489.16 871.33 2488.54 871.483 2487.85 871.621 2487.17 871.759 2486.42 871.874 2485.62 871.966 2484.83 872.058 2484.01 872.104 2483.19 872.104 2481.07 872.104 2479.23 871.79 2477.67 871.161 2476.1 870.532 2474.81 869.659 2473.8 868.539 2472.79 867.42 2472.04 866.101 2471.55 864.583 2471.06 863.065 2470.81 861.401 2470.81 859.592 2470.81 857.476 2471.13 855.621 2471.75 854.026 2472.38 852.432 2473.22 851.105 2474.26 850.047 2475.3 848.989 2476.5 848.192 2477.85 847.655 2479.2 847.119 2480.58 846.85 2481.99 846.85ZM2289.99 846.85C2293.3 846.85 2295.89 847.878 2297.74 849.932 2299.6 851.987 2300.52 855.054 2300.52 859.132 2300.52 859.439 2300.52 859.784 2300.5 860.167 2300.49 860.55 2300.46 860.896 2300.43 861.202L2284.56 861.202C2284.72 863.134 2285.4 864.629 2286.61 865.687 2287.82 866.745 2289.58 867.274 2291.88 867.274 2293.23 867.274 2294.46 867.151 2295.58 866.906 2296.7 866.661 2297.58 866.4 2298.22 866.124L2298.96 870.678C2298.65 870.831 2298.23 870.992 2297.7 871.161 2297.16 871.33 2296.54 871.483 2295.85 871.621 2295.17 871.759 2294.42 871.874 2293.62 871.966 2292.83 872.058 2292.01 872.104 2291.19 872.104 2289.07 872.104 2287.23 871.79 2285.67 871.161 2284.1 870.532 2282.81 869.659 2281.8 868.539 2280.79 867.42 2280.04 866.101 2279.55 864.583 2279.06 863.065 2278.81 861.401 2278.81 859.592 2278.81 857.476 2279.13 855.621 2279.75 854.026 2280.38 852.432 2281.22 851.105 2282.26 850.047 2283.3 848.989 2284.5 848.192 2285.85 847.655 2287.2 847.119 2288.58 846.85 2289.99 846.85ZM2255.73 846.85C2258 846.85 2260.14 847.264 2262.17 848.092L2260.97 852.646C2260.33 852.37 2259.6 852.14 2258.78 851.956 2257.97 851.772 2257.11 851.68 2256.19 851.68 2254.01 851.68 2252.35 852.362 2251.22 853.727 2250.08 855.092 2249.52 857.016 2249.52 859.5 2249.52 861.892 2250.05 863.786 2251.13 865.181 2252.2 866.576 2254.01 867.274 2256.55 867.274 2257.5 867.274 2258.44 867.182 2259.36 866.998 2260.28 866.814 2261.08 866.584 2261.75 866.308L2262.53 870.908C2261.92 871.215 2260.99 871.491 2259.75 871.736 2258.51 871.982 2257.23 872.104 2255.91 872.104 2253.86 872.104 2252.07 871.79 2250.55 871.161 2249.03 870.532 2247.78 869.659 2246.78 868.539 2245.78 867.42 2245.04 866.086 2244.55 864.537 2244.06 862.989 2243.81 861.31 2243.81 859.5 2243.81 857.721 2244.09 856.058 2244.64 854.509 2245.19 852.961 2245.98 851.619 2247.01 850.484 2248.04 849.349 2249.29 848.46 2250.76 847.816 2252.23 847.172 2253.89 846.85 2255.73 846.85ZM2202.73 846.85C2205 846.85 2207.14 847.264 2209.17 848.092L2207.97 852.646C2207.33 852.37 2206.6 852.14 2205.78 851.956 2204.97 851.772 2204.11 851.68 2203.19 851.68 2201.01 851.68 2199.35 852.362 2198.22 853.727 2197.08 855.092 2196.52 857.016 2196.52 859.5 2196.52 861.892 2197.05 863.786 2198.13 865.181 2199.2 866.576 2201.01 867.274 2203.55 867.274 2204.5 867.274 2205.44 867.182 2206.36 866.998 2207.28 866.814 2208.08 866.584 2208.75 866.308L2209.53 870.908C2208.92 871.215 2207.99 871.491 2206.75 871.736 2205.51 871.982 2204.23 872.104 2202.91 872.104 2200.86 872.104 2199.07 871.79 2197.55 871.161 2196.03 870.532 2194.78 869.659 2193.78 868.539 2192.78 867.42 2192.04 866.086 2191.55 864.537 2191.06 862.989 2190.81 861.31 2190.81 859.5 2190.81 857.721 2191.09 856.058 2191.64 854.509 2192.19 852.961 2192.98 851.619 2194.01 850.484 2195.04 849.349 2196.29 848.46 2197.76 847.816 2199.23 847.172 2200.89 846.85 2202.73 846.85ZM2164.99 846.85C2168.3 846.85 2170.89 847.878 2172.74 849.932 2174.6 851.987 2175.52 855.054 2175.52 859.132 2175.52 859.439 2175.52 859.784 2175.5 860.167 2175.49 860.55 2175.46 860.896 2175.43 861.202L2159.56 861.202C2159.72 863.134 2160.4 864.629 2161.61 865.687 2162.82 866.745 2164.58 867.274 2166.88 867.274 2168.23 867.274 2169.46 867.151 2170.58 866.906 2171.7 866.661 2172.58 866.4 2173.22 866.124L2173.96 870.678C2173.65 870.831 2173.23 870.992 2172.7 871.161 2172.16 871.33 2171.54 871.483 2170.85 871.621 2170.17 871.759 2169.42 871.874 2168.62 871.966 2167.83 872.058 2167.01 872.104 2166.19 872.104 2164.07 872.104 2162.23 871.79 2160.67 871.161 2159.1 870.532 2157.81 869.659 2156.8 868.539 2155.79 867.42 2155.04 866.101 2154.55 864.583 2154.06 863.065 2153.81 861.401 2153.81 859.592 2153.81 857.476 2154.13 855.621 2154.75 854.026 2155.38 852.432 2156.22 851.105 2157.26 850.047 2158.3 848.989 2159.5 848.192 2160.85 847.655 2162.2 847.119 2163.58 846.85 2164.99 846.85ZM2056.15 846.85C2057.99 846.85 2059.54 847.08 2060.8 847.54 2062.05 848 2063.06 848.644 2063.81 849.472 2064.56 850.3 2065.1 851.305 2065.42 852.485 2065.74 853.666 2065.9 854.961 2065.9 856.372L2065.9 870.954C2065.04 871.138 2063.75 871.36 2062.01 871.621 2060.28 871.882 2058.33 872.012 2056.15 872.012 2054.71 872.012 2053.39 871.874 2052.19 871.598 2051 871.322 2049.98 870.878 2049.14 870.264 2048.29 869.651 2047.63 868.854 2047.16 867.872 2046.68 866.891 2046.44 865.68 2046.44 864.238 2046.44 862.858 2046.71 861.693 2047.25 860.742 2047.79 859.792 2048.51 859.017 2049.43 858.419 2050.35 857.821 2051.42 857.392 2052.63 857.131 2053.84 856.87 2055.11 856.74 2056.43 856.74 2057.04 856.74 2057.68 856.779 2058.36 856.855 2059.03 856.932 2059.75 857.062 2060.52 857.246L2060.52 856.326C2060.52 855.682 2060.44 855.069 2060.29 854.486 2060.14 853.904 2059.87 853.39 2059.49 852.945 2059.1 852.5 2058.6 852.156 2057.97 851.91 2057.34 851.665 2056.55 851.542 2055.6 851.542 2054.31 851.542 2053.13 851.634 2052.06 851.818 2050.98 852.002 2050.11 852.217 2049.43 852.462L2048.74 847.954C2049.45 847.709 2050.48 847.464 2051.83 847.218 2053.18 846.973 2054.62 846.85 2056.15 846.85ZM2005.9 844.32C2004.18 844.32 2002.95 844.366 2002.22 844.458L2002.22 866.722C2002.56 866.753 2003 866.776 2003.55 866.791 2004.1 866.807 2004.86 866.814 2005.81 866.814 2009.7 866.814 2012.61 865.825 2014.52 863.847 2016.44 861.869 2017.4 859.102 2017.4 855.544 2017.4 851.925 2016.46 849.15 2014.59 847.218 2012.72 845.286 2009.82 844.32 2005.9 844.32ZM2431.44 840.18 2431.44 847.448 2439.99 847.448 2439.99 852.094 2431.44 852.094 2431.44 861.892C2431.44 863.824 2431.74 865.204 2432.36 866.032 2432.97 866.86 2434.01 867.274 2435.48 867.274 2436.5 867.274 2437.39 867.167 2438.18 866.952 2438.96 866.737 2439.58 866.538 2440.04 866.354L2440.96 870.77C2440.31 871.046 2439.47 871.33 2438.43 871.621 2437.39 871.912 2436.16 872.058 2434.75 872.058 2433.03 872.058 2431.6 871.828 2430.45 871.368 2429.3 870.908 2428.38 870.241 2427.71 869.367 2427.04 868.493 2426.56 867.435 2426.28 866.193 2426.01 864.951 2425.87 863.533 2425.87 861.938L2425.87 841.1ZM2375.44 840.18 2375.44 847.448 2383.99 847.448 2383.99 852.094 2375.44 852.094 2375.44 861.892C2375.44 863.824 2375.74 865.204 2376.36 866.032 2376.97 866.86 2378.01 867.274 2379.48 867.274 2380.5 867.274 2381.39 867.167 2382.18 866.952 2382.96 866.737 2383.58 866.538 2384.04 866.354L2384.96 870.77C2384.31 871.046 2383.47 871.33 2382.43 871.621 2381.39 871.912 2380.16 872.058 2378.75 872.058 2377.03 872.058 2375.6 871.828 2374.45 871.368 2373.3 870.908 2372.38 870.241 2371.71 869.367 2371.04 868.493 2370.56 867.435 2370.28 866.193 2370.01 864.951 2369.87 863.533 2369.87 861.938L2369.87 841.1ZM2115.44 840.18 2115.44 847.448 2123.99 847.448 2123.99 852.094 2115.44 852.094 2115.44 861.892C2115.44 863.824 2115.74 865.204 2116.36 866.032 2116.97 866.86 2118.01 867.274 2119.48 867.274 2120.5 867.274 2121.39 867.167 2122.18 866.952 2122.96 866.737 2123.58 866.538 2124.04 866.354L2124.96 870.77C2124.31 871.046 2123.47 871.33 2122.43 871.621 2121.39 871.912 2120.16 872.058 2118.75 872.058 2117.03 872.058 2115.6 871.828 2114.45 871.368 2113.3 870.908 2112.38 870.241 2111.71 869.367 2111.04 868.493 2110.56 867.435 2110.28 866.193 2110.01 864.951 2109.87 863.533 2109.87 861.938L2109.87 841.1ZM2005.53 839.306C2008.2 839.306 2010.64 839.62 2012.84 840.249 2015.05 840.878 2016.95 841.859 2018.53 843.193 2020.1 844.527 2021.32 846.214 2022.18 848.253 2023.04 850.292 2023.47 852.723 2023.47 855.544 2023.47 858.304 2023.04 860.704 2022.18 862.743 2021.32 864.782 2020.1 866.484 2018.53 867.849 2016.95 869.214 2015.04 870.226 2012.82 870.885 2010.6 871.544 2008.14 871.874 2005.44 871.874 2004.15 871.874 2002.69 871.82 2001.07 871.713 1999.44 871.606 1997.89 871.383 1996.42 871.046L1996.42 840.088C1997.89 839.751 1999.46 839.536 2001.11 839.444 2002.77 839.352 2004.24 839.306 2005.53 839.306ZM2391.95 836.96C2392.87 836.96 2393.67 837.267 2394.34 837.88 2395.02 838.494 2395.36 839.337 2395.36 840.41 2395.36 841.453 2395.02 842.281 2394.34 842.894 2393.67 843.508 2392.87 843.814 2391.95 843.814 2391 843.814 2390.19 843.508 2389.51 842.894 2388.84 842.281 2388.5 841.453 2388.5 840.41 2388.5 839.337 2388.84 838.494 2389.51 837.88 2390.19 837.267 2391 836.96 2391.95 836.96ZM2216.95 836.96C2217.87 836.96 2218.67 837.267 2219.34 837.88 2220.02 838.494 2220.36 839.337 2220.36 840.41 2220.36 841.453 2220.02 842.281 2219.34 842.894 2218.67 843.508 2217.87 843.814 2216.95 843.814 2216 843.814 2215.19 843.508 2214.51 842.894 2213.84 842.281 2213.5 841.453 2213.5 840.41 2213.5 839.337 2213.84 838.494 2214.51 837.88 2215.19 837.267 2216 836.96 2216.95 836.96ZM2581.48 835.81 2581.48 870.77C2580.37 871.107 2578.99 871.414 2577.31 871.69 2575.64 871.966 2573.89 872.104 2572.05 872.104 2570.15 872.104 2568.44 871.813 2566.94 871.23 2565.44 870.648 2564.16 869.812 2563.1 868.723 2562.04 867.635 2561.23 866.316 2560.66 864.767 2560.1 863.219 2559.81 861.478 2559.81 859.546 2559.81 857.645 2560.05 855.92 2560.52 854.371 2561 852.823 2561.7 851.496 2562.62 850.392 2563.54 849.288 2564.66 848.437 2565.98 847.839 2567.29 847.241 2568.81 846.942 2570.53 846.942 2571.7 846.942 2572.72 847.08 2573.61 847.356 2574.5 847.632 2575.27 847.939 2575.91 848.276L2575.91 836.73ZM2450.71 835.81 2450.71 847.724C2451.33 847.51 2452.04 847.326 2452.85 847.172 2453.66 847.019 2454.47 846.942 2455.27 846.942 2457.2 846.942 2458.8 847.211 2460.07 847.747 2461.35 848.284 2462.37 849.035 2463.13 850.001 2463.9 850.967 2464.44 852.125 2464.76 853.474 2465.09 854.823 2465.25 856.326 2465.25 857.982L2465.25 871.506 2459.68 871.506 2459.68 858.856C2459.68 857.568 2459.6 856.472 2459.43 855.567 2459.26 854.662 2458.98 853.927 2458.6 853.359 2458.22 852.792 2457.7 852.378 2457.06 852.117 2456.42 851.857 2455.62 851.726 2454.67 851.726 2453.93 851.726 2453.18 851.803 2452.41 851.956 2451.65 852.109 2451.08 852.247 2450.71 852.37L2450.71 871.506 2445.15 871.506 2445.15 836.73ZM2407.62 835.81 2407.62 863.364C2407.62 864.039 2407.67 864.606 2407.78 865.066 2407.89 865.526 2408.08 865.917 2408.36 866.239 2408.63 866.561 2409.01 866.807 2409.48 866.975 2409.96 867.144 2410.56 867.274 2411.3 867.366L2410.52 871.966C2408.86 871.935 2407.49 871.752 2406.4 871.414 2405.31 871.077 2404.45 870.594 2403.8 869.965 2403.16 869.336 2402.71 868.555 2402.45 867.619 2402.18 866.684 2402.05 865.618 2402.05 864.422L2402.05 836.73ZM2271.62 835.81 2271.62 863.364C2271.62 864.039 2271.67 864.606 2271.78 865.066 2271.89 865.526 2272.08 865.917 2272.36 866.239 2272.63 866.561 2273.01 866.807 2273.48 866.975 2273.96 867.144 2274.56 867.274 2275.3 867.366L2274.52 871.966C2272.86 871.935 2271.49 871.752 2270.4 871.414 2269.31 871.077 2268.45 870.594 2267.8 869.965 2267.16 869.336 2266.71 868.555 2266.45 867.619 2266.18 866.684 2266.05 865.618 2266.05 864.422L2266.05 836.73ZM2134.71 835.81 2134.71 847.724C2135.33 847.51 2136.04 847.326 2136.85 847.172 2137.66 847.019 2138.47 846.942 2139.27 846.942 2141.2 846.942 2142.8 847.211 2144.07 847.747 2145.35 848.284 2146.37 849.035 2147.13 850.001 2147.9 850.967 2148.44 852.125 2148.77 853.474 2149.09 854.823 2149.25 856.326 2149.25 857.982L2149.25 871.506 2143.68 871.506 2143.68 858.856C2143.68 857.568 2143.6 856.472 2143.43 855.567 2143.26 854.662 2142.98 853.927 2142.6 853.359 2142.22 852.792 2141.7 852.378 2141.06 852.117 2140.42 851.857 2139.62 851.726 2138.67 851.726 2137.93 851.726 2137.18 851.803 2136.41 851.956 2135.65 852.109 2135.08 852.247 2134.71 852.37L2134.71 871.506 2129.15 871.506 2129.15 836.73Z" stroke="#000000" stroke-linejoin="round" stroke-miterlimit="10" fill="#FFFFFF" fill-rule="evenodd"/><text fill="#000000" fill-opacity="0" font-family="Arial,Arial_MSFontService,sans-serif" font-size="44.344" x="1996.42" y="874.611">Drag the circle until the end </text><path d="M2553.62 1031.77C2538.58 1017.89 2515.07 1019.04 2500.8 1033.7L2378.99 1160.98C2373.21 1166.76 2364.34 1167.92 2357.41 1163.68L2246.77 1093.48C2233.67 1085 2217.48 1083.84 2203.21 1090.4L2053.26 1157.89C2033.21 1166.76 2022.81 1189.13 2028.59 1210.35L2073.3 1375.43C2078.32 1393.55 2090.65 1408.98 2107.61 1417.08 2107.61 1417.08 2185.09 1454.49 2235.21 1478.79 2257.57 1489.59 2284.16 1478.79 2293.03 1455.65L2293.03 1455.65C2300.35 1436.37 2291.49 1413.61 2272.98 1404.35L2164.66 1349.97C2156.57 1345.73 2150.4 1338.4 2147.7 1329.53L2122.65 1240.43C2120.72 1233.49 2124.19 1225.78 2130.74 1222.69L2209.77 1185.28C2214.78 1182.96 2220.56 1182.96 2225.57 1186.05L2351.24 1258.95C2367.43 1268.2 2387.86 1265.5 2400.96 1252.39L2556.7 1086.54C2571.35 1071.11 2570.19 1046.81 2554.39 1032.54ZM2528.17 1086.15C2513.91 1086.15 2501.96 1074.58 2501.96 1059.93 2501.96 1045.27 2513.53 1033.7 2528.17 1033.7 2542.82 1033.7 2554.39 1045.27 2554.39 1059.93 2554.39 1074.58 2542.82 1086.15 2528.17 1086.15Z" fill="#FFFFFF" fill-rule="evenodd" fill-opacity="0.501961"/></g></svg>